M48
; DRILL file {KiCad 9.0.7} date 2026-04-11T00:49:03+0530
; FORMAT={-:-/ absolute / metric / decimal}
; #@! TF.CreationDate,2026-04-11T00:49:03+05:30
; #@! TF.GenerationSoftware,Kicad,Pcbnew,9.0.7
; #@! TF.FileFunction,NonPlated,1,2,NPTH
FMAT,2
METRIC
; #@! TA.AperFunction,NonPlated,NPTH,ComponentDrill
T1C1.700
; #@! TA.AperFunction,NonPlated,NPTH,ComponentDrill
T2C1.850
; #@! TA.AperFunction,NonPlated,NPTH,ComponentDrill
T3C2.200
; #@! TA.AperFunction,NonPlated,NPTH,ComponentDrill
T4C3.050
; #@! TA.AperFunction,NonPlated,NPTH,ComponentDrill
T5C4.000
%
G90
G05
T1
X42.545Y-59.531
X44.926Y-135.731
X47.307Y-78.581
X49.689Y-97.631
X52.705Y-59.531
X54.445Y-116.681
X55.086Y-135.731
X57.467Y-78.581
X59.849Y-97.631
X61.615Y-59.516
X64.605Y-116.681
X68.739Y-135.731
X71.12Y-78.581
X71.775Y-59.516
X75.882Y-97.631
X78.899Y-135.731
X80.665Y-59.5
X81.28Y-78.581
X85.407Y-116.681
X86.042Y-97.631
X90.17Y-78.581
X90.825Y-59.5
X92.517Y-135.724
X94.932Y-97.631
X95.567Y-116.681
X99.695Y-59.508
X100.33Y-78.581
X102.677Y-135.724
X104.457Y-116.681
X105.093Y-97.631
X109.22Y-78.581
X109.855Y-59.508
X113.983Y-97.631
X114.617Y-116.681
X118.745Y-59.531
X119.38Y-78.581
X123.507Y-116.681
X124.142Y-97.631
X128.27Y-78.581
X128.905Y-59.531
X133.032Y-97.631
X133.667Y-116.681
X137.795Y-59.531
X138.43Y-78.581
X142.558Y-116.681
X143.192Y-97.631
X147.32Y-78.581
X147.955Y-59.531
X152.082Y-97.631
X152.718Y-116.681
X156.845Y-59.531
X157.48Y-78.581
X161.607Y-116.681
X162.243Y-97.631
X163.982Y-135.731
X166.37Y-78.581
X167.005Y-59.531
X171.132Y-97.631
X171.767Y-116.681
X174.142Y-135.731
X175.895Y-59.531
X176.53Y-78.581
X180.657Y-116.681
X181.292Y-97.631
X185.42Y-78.581
X186.055Y-59.531
X190.183Y-97.631
X190.817Y-116.681
X194.945Y-59.531
X195.58Y-78.581
X199.704Y-116.681
X200.343Y-97.631
X204.47Y-78.581
X205.105Y-59.531
X209.232Y-97.631
X209.864Y-116.681
X213.995Y-59.531
X214.63Y-78.581
X218.762Y-116.697
X219.392Y-97.631
X223.52Y-78.581
X224.155Y-59.531
X228.282Y-97.631
X228.922Y-116.697
X233.018Y-135.771
X233.045Y-59.531
X233.68Y-78.581
X237.804Y-116.674
X238.442Y-97.631
X242.57Y-78.581
X243.178Y-135.771
X243.205Y-59.531
X247.332Y-97.631
X247.964Y-116.674
X252.031Y-135.717
X252.095Y-59.531
X252.73Y-78.581
X256.858Y-116.681
X257.493Y-97.631
X261.62Y-78.581
X262.191Y-135.717
X262.255Y-59.531
X266.382Y-97.631
X267.017Y-116.681
X271.116Y-135.759
X271.145Y-59.531
X271.78Y-78.581
X276.542Y-97.631
X280.67Y-78.581
X281.276Y-135.759
X281.305Y-59.531
X283.071Y-116.705
X290.153Y-135.768
X290.83Y-78.581
X293.231Y-116.705
X297.339Y-97.631
X299.72Y-59.531
X300.313Y-135.768
X304.482Y-78.581
X307.499Y-97.631
X309.245Y-116.681
X309.245Y-135.731
X309.88Y-59.531
X314.642Y-78.581
X319.405Y-116.681
X319.405Y-135.731
X328.287Y-135.748
X328.295Y-59.531
X328.295Y-78.581
X328.295Y-97.631
X328.295Y-116.681
X338.447Y-135.748
X338.455Y-59.531
X338.455Y-78.581
X338.455Y-97.631
X338.455Y-116.681
T2
X355.397Y-53.81
X360.248Y-53.81
T3
X355.097Y-50.78
X360.547Y-50.78
T4
X47.625Y-109.681
X71.425Y-109.681
X119.062Y-128.731
X219.062Y-128.731
X290.519Y-90.631
X292.9Y-52.531
X314.319Y-90.631
X316.7Y-52.531
T5
X47.625Y-59.531
X47.625Y-124.921
X50.006Y-135.731
X52.387Y-78.581
X54.769Y-97.631
X59.525Y-116.681
X66.695Y-59.516
X71.425Y-124.921
X73.819Y-135.731
X76.2Y-78.581
X80.962Y-97.631
X85.745Y-59.5
X90.487Y-116.681
X95.25Y-78.581
X97.597Y-135.724
X100.012Y-97.631
X104.775Y-59.508
X109.537Y-116.681
X114.3Y-78.581
X119.062Y-97.631
X119.062Y-143.971
X123.825Y-59.531
X128.588Y-116.681
X133.35Y-78.581
X138.112Y-97.631
X142.875Y-59.531
X147.637Y-116.681
X152.4Y-78.581
X157.162Y-97.631
X161.925Y-59.531
X166.688Y-116.681
X169.062Y-135.731
X171.45Y-78.581
X176.213Y-97.631
X180.975Y-59.531
X185.737Y-116.681
X190.5Y-78.581
X195.262Y-97.631
X200.025Y-59.531
X204.784Y-116.681
X209.55Y-78.581
X214.312Y-97.631
X219.062Y-143.971
X219.075Y-59.531
X223.842Y-116.697
X228.6Y-78.581
X233.362Y-97.631
X238.098Y-135.771
X238.125Y-59.531
X242.884Y-116.674
X247.65Y-78.581
X252.412Y-97.631
X257.111Y-135.717
X257.175Y-59.531
X261.938Y-116.681
X266.7Y-78.581
X271.462Y-97.631
X276.196Y-135.759
X276.225Y-59.531
X285.75Y-78.581
X288.151Y-116.705
X290.519Y-105.871
X292.9Y-67.771
X295.233Y-135.768
X302.419Y-97.631
X304.8Y-59.531
X309.562Y-78.581
X314.319Y-105.871
X314.325Y-116.681
X314.325Y-135.731
X316.7Y-67.771
X333.367Y-135.748
X333.375Y-59.531
X333.375Y-78.581
X333.375Y-97.631
X333.375Y-116.681
M30
