M48
; DRILL file {KiCad 9.0.7} date 2026-04-11T00:49:03+0530
; FORMAT={-:-/ absolute / metric / decimal}
; #@! TF.CreationDate,2026-04-11T00:49:03+05:30
; #@! TF.GenerationSoftware,Kicad,Pcbnew,9.0.7
; #@! TF.FileFunction,Plated,1,2,PTH
FMAT,2
METRIC
; #@! TA.AperFunction,Plated,PTH,ViaDrill
T1C0.300
; #@! TA.AperFunction,Plated,PTH,ComponentDrill
T2C0.800
; #@! TA.AperFunction,Plated,PTH,ComponentDrill
T3C1.000
; #@! TA.AperFunction,Plated,PTH,ComponentDrill
T4C1.500
%
G90
G05
T1
X97.332Y-63.395
X116.074Y-62.887
X133.109Y-127.803
X173.304Y-126.604
X190.103Y-127.984
X208.102Y-125.664
X229.099Y-122.243
X249.157Y-63.784
X249.847Y-110.288
X267.868Y-69.417
X287.112Y-86.473
X289.425Y-74.978
X300.095Y-85.872
X319.198Y-92.86
X331.089Y-104.449
X331.362Y-76.138
X342.706Y-90.925
X350.039Y-110.288
X352.087Y-84.014
X370.29Y-84.014
T2
X57.15Y-57.15
X57.15Y-64.77
X61.912Y-132.392
X61.912Y-140.012
X66.675Y-74.771
X66.675Y-82.391
X71.448Y-94.292
X71.448Y-101.912
X76.2Y-57.15
X76.2Y-64.77
X80.962Y-113.342
X80.962Y-120.962
X85.725Y-74.812
X85.725Y-82.432
X85.725Y-132.392
X85.725Y-140.012
X90.487Y-94.292
X90.487Y-101.912
X95.25Y-57.15
X95.25Y-64.77
X100.012Y-113.342
X100.012Y-120.962
X104.775Y-74.787
X104.775Y-82.407
X109.537Y-94.292
X109.537Y-101.912
X109.537Y-132.392
X109.537Y-140.012
X114.3Y-57.15
X114.3Y-64.77
X119.062Y-113.342
X119.062Y-120.962
X123.825Y-74.787
X123.825Y-82.407
X128.588Y-94.292
X128.588Y-101.912
X133.35Y-57.15
X133.35Y-64.77
X138.112Y-113.342
X138.112Y-120.962
X142.875Y-74.78
X142.875Y-82.4
X147.637Y-93.689
X147.637Y-101.309
X152.4Y-57.15
X152.4Y-64.77
X157.162Y-113.342
X157.162Y-120.962
X161.925Y-74.775
X161.925Y-82.395
X166.688Y-94.292
X166.688Y-101.912
X171.45Y-57.15
X171.45Y-64.77
X176.213Y-113.342
X176.213Y-120.962
X180.975Y-74.765
X180.975Y-82.385
X185.737Y-94.292
X185.737Y-101.912
X190.5Y-57.15
X190.5Y-64.77
X195.262Y-113.342
X195.262Y-120.962
X200.025Y-74.765
X200.025Y-82.385
X204.787Y-94.292
X204.787Y-101.912
X209.55Y-57.15
X209.55Y-64.77
X214.312Y-113.342
X214.312Y-120.962
X219.075Y-74.78
X219.075Y-82.4
X223.837Y-94.292
X223.837Y-101.912
X228.6Y-57.15
X228.6Y-64.77
X228.6Y-132.392
X228.6Y-140.012
X233.362Y-113.342
X233.362Y-120.962
X238.125Y-74.794
X238.125Y-82.414
X242.887Y-94.292
X242.887Y-101.912
X247.65Y-57.15
X247.65Y-64.77
X247.65Y-132.392
X247.65Y-140.012
X252.412Y-113.342
X252.412Y-120.962
X257.175Y-74.784
X257.175Y-82.404
X261.938Y-94.292
X261.938Y-101.912
X266.7Y-57.15
X266.7Y-64.77
X266.7Y-132.392
X266.7Y-140.012
X271.462Y-113.342
X271.462Y-120.962
X276.225Y-74.771
X276.225Y-82.391
X280.988Y-94.292
X280.988Y-101.912
X285.75Y-57.15
X285.75Y-64.77
X285.75Y-132.392
X285.75Y-140.012
X295.275Y-74.78
X295.275Y-82.4
X304.8Y-113.342
X304.8Y-120.962
X304.8Y-132.392
X304.8Y-140.012
X323.839Y-74.644
X323.839Y-82.264
X323.85Y-57.15
X323.85Y-64.77
X323.85Y-94.292
X323.85Y-101.912
X323.85Y-113.342
X323.85Y-120.962
X323.85Y-132.392
X323.85Y-140.012
X342.882Y-74.614
X342.882Y-82.234
X342.9Y-57.15
X342.9Y-64.77
X342.9Y-94.292
X342.9Y-101.912
X342.9Y-113.342
X342.9Y-120.962
X342.9Y-132.392
X342.9Y-140.012
T3
X348.933Y-50.65
X348.933Y-53.19
X348.933Y-55.73
X348.933Y-58.27
X348.933Y-60.81
X348.933Y-63.35
X348.933Y-65.89
X348.933Y-68.43
X348.933Y-70.97
X348.933Y-73.51
X348.933Y-76.05
X348.933Y-78.59
X348.933Y-81.13
X348.933Y-83.67
X348.933Y-86.21
X348.933Y-88.75
X348.933Y-91.29
X348.933Y-93.83
X348.933Y-96.37
X348.933Y-98.91
X366.712Y-50.65
X366.712Y-53.19
X366.712Y-55.73
X366.712Y-58.27
X366.712Y-60.81
X366.712Y-63.35
X366.712Y-65.89
X366.712Y-68.43
X366.712Y-70.97
X366.712Y-73.51
X366.712Y-76.05
X366.712Y-78.59
X366.712Y-81.13
X366.712Y-83.67
X366.712Y-86.21
X366.712Y-88.75
X366.712Y-91.29
X366.712Y-93.83
X366.712Y-96.37
X366.712Y-98.91
T4
X43.815Y-56.991
X46.196Y-133.191
X48.578Y-76.041
X50.165Y-54.451
X50.959Y-95.091
X52.546Y-130.651
X54.927Y-73.501
X55.715Y-114.141
X57.309Y-92.551
X62.065Y-111.601
X62.886Y-56.976
X69.236Y-54.436
X70.009Y-133.191
X72.39Y-76.041
X76.359Y-130.651
X77.153Y-95.091
X78.74Y-73.501
X81.935Y-56.96
X83.502Y-92.551
X86.677Y-114.141
X88.285Y-54.42
X91.44Y-76.041
X93.027Y-111.601
X93.787Y-133.184
X96.203Y-95.091
X97.79Y-73.501
X100.137Y-130.644
X100.965Y-56.968
X102.552Y-92.551
X105.727Y-114.141
X107.315Y-54.428
X110.49Y-76.041
X112.078Y-111.601
X115.252Y-95.091
X116.84Y-73.501
X120.015Y-56.991
X121.602Y-92.551
X124.777Y-114.141
X126.365Y-54.451
X129.54Y-76.041
X131.127Y-111.601
X134.302Y-95.091
X135.89Y-73.501
X139.065Y-56.991
X140.653Y-92.551
X143.827Y-114.141
X145.415Y-54.451
X148.59Y-76.041
X150.177Y-111.601
X153.352Y-95.091
X154.94Y-73.501
X158.115Y-56.991
X159.702Y-92.551
X162.877Y-114.141
X164.465Y-54.451
X165.252Y-133.191
X167.64Y-76.041
X169.227Y-111.601
X171.602Y-130.651
X172.403Y-95.091
X173.99Y-73.501
X177.165Y-56.991
X178.752Y-92.551
X181.927Y-114.141
X183.515Y-54.451
X186.69Y-76.041
X188.278Y-111.601
X191.452Y-95.091
X193.04Y-73.501
X196.215Y-56.991
X197.802Y-92.551
X200.974Y-114.141
X202.565Y-54.451
X205.74Y-76.041
X207.324Y-111.601
X210.502Y-95.091
X212.09Y-73.501
X215.265Y-56.991
X216.852Y-92.551
X220.032Y-114.157
X221.615Y-54.451
X224.79Y-76.041
X226.382Y-111.617
X229.552Y-95.091
X231.14Y-73.501
X234.288Y-133.231
X234.315Y-56.991
X235.903Y-92.551
X239.074Y-114.134
X240.638Y-130.691
X240.665Y-54.451
X243.84Y-76.041
X245.424Y-111.594
X248.602Y-95.091
X250.19Y-73.501
X253.301Y-133.177
X253.365Y-56.991
X254.952Y-92.551
X258.127Y-114.141
X259.651Y-130.637
X259.715Y-54.451
X262.89Y-76.041
X264.477Y-111.601
X267.652Y-95.091
X269.24Y-73.501
X272.386Y-133.219
X272.415Y-56.991
X274.002Y-92.551
X278.736Y-130.679
X278.765Y-54.451
X281.94Y-76.041
X284.341Y-114.165
X288.29Y-73.501
X290.691Y-111.625
X291.423Y-133.228
X297.773Y-130.688
X298.609Y-95.091
X300.99Y-56.991
X304.959Y-92.551
X305.752Y-76.041
X307.34Y-54.451
X310.515Y-114.141
X310.515Y-133.191
X312.102Y-73.501
X316.865Y-111.601
X316.865Y-130.651
X329.557Y-133.208
X329.565Y-56.991
X329.565Y-76.041
X329.565Y-95.091
X329.565Y-114.141
X335.907Y-130.668
X335.915Y-54.451
X335.915Y-73.501
X335.915Y-92.551
X335.915Y-111.601
M30
